<svg xmlns="http://www.w3.org/2000/svg" xmlns:xlink="http://www.w3.org/1999/xlink" width="3066px" height="1683px" viewBox="0 0 3066 1683"><title>lines</title><desc>Created with Sketch.</desc><g id="Pages" stroke="none" stroke-width="1" fill="none" fill-rule="evenodd"><g id="A2" fill="#000000"><g id="lines" transform="translate(-202.201330, -470.723578)"><path d="M203.662872,1999.57328 L310.651281,2153.48257 L203.662872,2153.48257 L203.662872,1999.57328 Z M559.402891,2014.96917 L655.69038,2153.48257 L360.102259,2153.48257 L559.198211,2015.05233 L559.226994,2015.09231 L559.402891,2014.96917 Z M954.072062,2085.93226 L1001.0301,2153.48257 L856.83473,2153.48257 L953.867382,2086.01542 L953.894566,2086.0554 L954.072062,2085.93226 Z" id="Clip-26"></path><polygon id="Fill-10" points="3175.57948 1051.8683 3175.40198 1051.99144 3175.3748 1051.94986 2942.94161 1213.56269 2781.2541 980.965983 2781.07661 981.089124 2781.04942 981.047544 2548.41156 1142.7995 2386.58333 910.002895 2386.40743 910.126036 2386.37865 910.084456 2153.94547 1071.69568 1992.25796 839.100577 1992.08046 839.223719 1992.05328 839.182139 1759.67286 1000.75658 1598.02373 768.215852 1597.84624 768.338993 1597.81905 768.297413 1365.38427 929.908638 1203.69676 697.313535 1203.52086 697.436676 1203.49208 697.396695 970.857411 859.147054 809.029187 626.350446 808.850092 626.473588 808.822908 626.432008 576.389721 788.043233 414.702214 555.448129 414.524718 555.571271 414.495935 555.53129 99.8485996 774.305759 156.975072 856.481121 389.630529 694.716368 494.220346 845.174492 494.175572 845.206477 551.302045 927.383438 783.957501 765.617086 945.609828 998.164213 945.766536 998.053865 945.969617 998.346526 1178.62507 836.581774 1283.21809 987.039897 1283.17012 987.071882 1340.29659 1069.24884 1572.95205 907.482492 1677.50668 1057.88784 1677.40594 1057.95821 1734.53242 1140.13357 1967.18787 978.368817 2071.77769 1128.82854 2071.73292 1128.85892 2128.85779 1211.03589 2361.51484 1049.27113 2523.16557 1281.81506 2523.32228 1281.70631 2523.52696 1282.00057 2756.18242 1120.23422 2860.77383 1270.69235 2860.72746 1270.72433 2917.85393 1352.90129 3150.50939 1191.13654 3312.16172 1423.68047 3394.32949 1366.55081"></polygon><polygon id="Fill-16" points="3075.73088 1607.31483 3075.55338 1607.43957 3075.5246 1607.39799 2843.09141 1769.00922 2681.4023 1536.41251 2681.22641 1536.53725 2681.19762 1536.49567 2448.56296 1698.24923 2286.73473 1465.44942 2286.55884 1465.57417 2286.53005 1465.53258 2054.09687 1627.14381 1892.40776 1394.54711 1892.23186 1394.67185 1892.20308 1394.63027 1659.82426 1556.20311 1498.17353 1323.66238 1497.99604 1323.78552 1497.96725 1323.74554 1265.53567 1485.35677 1103.84816 1252.76006 1103.66906 1252.88321 1103.64188 1252.84323 871.005613 1414.59678 709.177389 1181.79698 709.001492 1181.92012 708.972709 1181.88014 476.539522 1343.49136 314.852016 1110.89626 314.67452 1111.0178 314.647336 1110.97782 5.00222086e-12 1329.75229 57.1248738 1411.93085 289.78033 1250.1629 394.371746 1400.62262 394.326972 1400.65461 451.450247 1482.83157 684.105703 1321.06522 845.75963 1553.61074 845.916338 1553.50199 846.121018 1553.79625 1078.77647 1392.0283 1183.36629 1542.48803 1183.32152 1542.52001 1240.44639 1624.69697 1473.10345 1462.93062 1577.65489 1613.33597 1577.55734 1613.40474 1634.68062 1695.5817 1867.33767 1533.81535 1971.92909 1684.27507 1971.88112 1684.30705 2029.00759 1766.48402 2261.66305 1604.71766 2423.31697 1837.26479 2423.47368 1837.15444 2423.67836 1837.4471 2656.33382 1675.68075 2760.92363 1826.14207 2760.87886 1826.17246 2818.00214 1908.34942 3050.65759 1746.58307 3212.31152 1979.1302 3294.48089 1921.99734"></polygon><polygon id="Fill-13" points="3125.65518 1329.59077 3125.47768 1329.71391 3125.4505 1329.67393 2893.01571 1491.28515 2731.3282 1258.69005 2731.15231 1258.81159 2731.12352 1258.77161 2498.48886 1420.52517 2336.66063 1187.72696 2336.48154 1187.8485 2336.45435 1187.80852 2104.02117 1349.41975 1942.33366 1116.82464 1942.15616 1116.94778 1942.12738 1116.9078 1709.74856 1278.48065 1548.09783 1045.93992 1547.92194 1046.06146 1547.89315 1046.02148 1315.45997 1207.6327 1153.77086 975.037599 1153.59496 975.160741 1153.56618 975.11916 920.931512 1136.87112 759.103288 904.074511 758.927391 904.197652 758.897009 904.156072 526.465421 1065.7673 364.776315 833.172194 364.600419 833.295335 364.571636 833.253755 49.9258989 1052.02822 107.049174 1134.20519 339.706229 972.440433 444.297645 1122.89856 444.249673 1122.93054 501.376146 1205.1075 734.031602 1043.34275 895.685529 1275.88668 895.842237 1275.77793 896.046917 1276.07059 1128.70237 1114.30584 1233.29219 1264.76396 1233.24742 1264.79595 1290.37069 1346.97291 1523.02615 1185.20656 1627.58078 1335.61191 1627.48164 1335.68067 1684.60652 1417.85923 1917.26197 1256.09128 2021.85179 1406.551 2021.80702 1406.58299 2078.93349 1488.76155 2311.58895 1326.9936 2473.24287 1559.53913 2473.39798 1559.43038 2473.60106 1559.72464 2706.25652 1397.95669 2810.84953 1548.41641 2810.80316 1548.4484 2867.92803 1630.62536 3100.58349 1468.859 3262.23742 1701.40453 3344.40519 1644.27327"></polygon><polygon id="Fill-4" points="3275.42967 496.420171 3275.25218 496.543312 3275.22499 496.503331 3042.79021 658.114557 2881.1027 425.517854 2880.92681 425.640995 2880.89802 425.601014 2648.26335 587.352972 2486.43513 354.554765 2486.25763 354.677907 2486.23045 354.637926 2253.79566 516.249151 2092.10816 283.652448 2091.93226 283.77559 2091.90348 283.735609 1859.52466 445.308452 1697.87393 212.767723 1697.69643 212.890864 1697.66765 212.849284 1465.23606 374.462108 1303.54696 141.865406 1303.36946 141.988547 1303.34068 141.948566 1070.70601 303.700524 908.877786 70.9023172 908.701889 71.0254587 908.673106 70.9838784 676.23992 232.596703 514.550814 3.06954462e-12 514.374917 0.1231415 514.346134 0.0831604938 199.700397 218.85763 256.823672 301.034591 489.480727 139.268239 594.072143 289.727962 594.025771 289.758348 651.150644 371.935309 883.806101 210.170557 1045.46003 442.716084 1045.61674 442.605736 1045.82142 442.899996 1278.47687 281.133645 1383.06669 431.593368 1383.02191 431.623753 1440.14679 513.800714 1672.80224 352.035962 1777.35528 502.441311 1777.25774 502.510078 1834.38102 584.687039 2067.03647 422.920688 2171.62949 573.38041 2171.58151 573.410796 2228.70799 655.589356 2461.36344 493.823005 2623.01737 726.368532 2623.17248 726.259783 2623.37716 726.552444 2856.03262 564.786093 2960.62403 715.245816 2960.57766 715.276201 3017.70253 797.454762 3250.35799 635.68841 3412.01192 868.233937 3494.17969 811.102678"></polygon><polygon id="Fill-7" points="3225.50537 774.144236 3225.32788 774.267377 3225.2991 774.227396 2992.86751 935.837022 2831.1784 703.241918 2831.00091 703.36506 2830.97372 703.325079 2598.33745 865.077037 2436.50923 632.27883 2436.33333 632.401972 2436.30455 632.361991 2203.87136 793.971616 2042.18226 561.376513 2042.00636 561.499654 2041.97758 561.459673 1809.59876 723.032517 1647.94803 490.491787 1647.77054 490.614929 1647.74335 490.574948 1415.31016 652.184574 1253.62266 419.58947 1253.44516 419.712612 1253.41798 419.672631 1020.78011 581.424589 858.951887 348.626382 858.775991 348.749523 858.747208 348.709542 626.314021 510.319168 464.626514 277.724065 464.449018 277.847206 464.421834 277.807225 149.774498 496.580095 206.900971 578.758655 439.556428 416.992304 544.146245 567.450427 544.101471 567.482412 601.224746 649.660972 833.881801 487.894621 995.534128 720.438549 995.692435 720.3314 995.895516 720.624061 1228.55097 558.857709 1333.14079 709.315833 1333.09602 709.347818 1390.22089 791.524779 1622.87794 629.760027 1727.42938 780.165375 1727.33184 780.234142 1784.45672 862.411104 2017.11217 700.644752 2121.70359 851.104475 2121.65881 851.13646 2178.78209 933.311821 2411.43754 771.547069 2573.09147 1004.0926 2573.24818 1003.98225 2573.45286 1004.27651 2806.10832 842.510158 2910.69813 992.96988 2910.65336 993.001865 2967.77823 1075.17723 3200.43369 913.412475 3362.08602 1145.958 3444.25539 1088.82514"></polygon><polygon id="Clip-20" points="264.926117 1388.61872 426.613624 1621.21543 659.048409 1459.6042 659.075593 1459.64578 659.253089 1459.52104 821.081313 1692.31925 1053.71758 1530.56729 1053.74636 1530.60887 1053.92226 1530.48413 1215.60977 1763.08083 1448.04455 1601.46961 1448.07014 1601.51119 1448.24923 1601.38645 1609.89836 1833.92877 1842.27878 1672.35433 1842.30596 1672.39591 1842.48346 1672.27277 2004.17097 1904.86787 2236.60415 1743.25665 2236.63294 1743.29823 2236.80883 1743.17509 2398.63706 1975.9717 2631.27332 1814.21974 2631.30051 1814.26132 2631.4796 1814.13818 2793.16711 2046.73328 3025.5987 1885.12206 3025.62748 1885.16204 3025.80498 1885.04049 3212.41226 2153.48257 3090.52859 2153.48257 3000.73489 2024.30873 2814.95272 2153.48257 2745.42393 2153.48257 2710.95296 2103.89652 2710.99774 2103.86454 2606.40792 1953.40642 2373.75246 2115.17117 2373.54778 2114.87691 2373.39107 2114.98726 2211.73875 1882.44333 1979.08169 2044.20808 1921.95842 1962.03112 1922.00319 1961.99913 1817.41177 1811.54101 1584.75632 1973.30576 1527.63144 1891.1288 1527.73059 1891.06003 1423.17755 1740.65469 1190.52209 1902.42104 1133.39562 1820.24408 1133.44199 1820.21049 1028.85058 1669.75237 796.195119 1831.51872 795.992038 1831.22606 795.83533 1831.33481 634.183003 1598.78928 401.525947 1760.55563 344.401074 1678.37867 344.445847 1678.34509 239.85603 1527.88696 203.662872 1553.05261 203.662872 1431.15532 264.721437 1388.70188 264.75022 1388.74346"></polygon><path d="M215.001817,1666.34439 L376.689324,1898.93949 L609.12251,1737.32667 L609.149694,1737.36825 L609.328789,1737.2467 L771.157014,1970.04331 L1003.79168,1808.29135 L1003.82047,1808.33293 L1003.99636,1808.20979 L1165.68547,2040.8049 L1398.11865,1879.19207 L1398.14744,1879.23365 L1398.32333,1879.11211 L1559.97406,2111.65284 L1792.35288,1950.0784 L1792.38166,1950.11838 L1792.55756,1949.99684 L1934.01054,2153.48257 L1812.12847,2153.48257 L1767.48747,2089.26508 L1675.12728,2153.48257 L1467.17093,2153.48257 L1373.25165,2018.37875 L1178.94329,2153.48257 L1122.06147,2153.48257 L1083.47132,2097.96654 L1083.51769,2097.93616 L978.926275,1947.47803 L746.26922,2109.24278 L746.067738,2108.94852 L745.909431,2109.05887 L584.257104,1876.51334 L351.601648,2038.2797 L294.475175,1956.10114 L294.521547,1956.07075 L203.662872,1825.36804 L203.662872,1674.16627 L214.795538,1666.42595 L214.824321,1666.46753 L215.001817,1666.34439 Z M2186.88453,2020.89755 L2279.04964,2153.48257 L1996.1085,2153.48257 L2186.67985,2020.98071 L2186.70704,2021.0207 L2186.88453,2020.89755 Z M2581.5537,2091.86224 L2624.38936,2153.48257 L2492.84257,2153.48257 L2581.34903,2091.9438 L2581.37781,2091.98378 L2581.5537,2091.86224 Z" id="Clip-23"></path></g></g></g></svg>